<svg id="Layer_1" data-name="Layer 1" xmlns="http://www.w3.org/2000/svg" viewBox="0 0 23.94 23.77"><defs><style>.cls-1{fill:#4b5161;}</style></defs><title>codewars</title><path class="cls-1" d="M.76,12.2l-.08,0a1.05,1.05,0,0,1-.42-.44A1.54,1.54,0,0,1,.06,11l0-.13a1.15,1.15,0,0,1,.14-.55l.08-.15a1.7,1.7,0,0,1,.15-.22.26.26,0,0,0,0-.24l0-.16a2.09,2.09,0,0,1-.1-.6l0-.12a.91.91,0,0,1,.2-.6l.1-.13a.57.57,0,0,1,.3-.2.27.27,0,0,0,.18-.25l0-.34a1,1,0,0,1,.33-.7l.24-.18a.66.66,0,0,0,.14-.18.25.25,0,0,0,0-.2c0-.1,0-.13.05-.14s.26,0,.33,0l.13-.17.36-.4a.4.4,0,0,0,.08-.42l-.12-.26a.12.12,0,0,1,0-.15A.27.27,0,0,1,3,4.57l0,.07a.24.24,0,0,0,.3.13,1.59,1.59,0,0,1,.57-.1h.32a.44.44,0,0,0,.44-.38A1.18,1.18,0,0,1,5,3.64a1.68,1.68,0,0,1,.52-.4A.85.85,0,0,0,6,2.64a1.08,1.08,0,0,1,.47-.7l.76-.43.22-.13a1.43,1.43,0,0,0,.35-.3L8,.84a.69.69,0,0,1,.32-.2,1,1,0,0,1,.36,0l.4,0a1.24,1.24,0,0,1,.52.12l.1.05A.21.21,0,0,0,9.91.75L10,.7l.43-.45a.39.39,0,0,1,.35-.12,1.32,1.32,0,0,1,.38.13,1,1,0,0,0,.5.14h.1a3,3,0,0,1,.66.08l.15,0A.39.39,0,0,0,13,.38a.09.09,0,0,1,.14,0,.12.12,0,0,1,.05.07.45.45,0,0,0,.3.4l.16.05a.8.8,0,0,1,.42.3,1.54,1.54,0,0,0,.36.4l.1.1a.48.48,0,0,0,.38.13h.59a1.72,1.72,0,0,1,.7.14.85.85,0,0,0,.66,0,1.57,1.57,0,0,1,.68-.07l.43.07a.78.78,0,0,1,.52.27l.05.05a3,3,0,0,1,.3.37.37.37,0,0,0,.34.2h.62a.84.84,0,0,1,.42.1,3.45,3.45,0,0,1,.34.3l.1.13a.75.75,0,0,1,.17.53.29.29,0,0,0,.28.3l.2,0a.39.39,0,0,1,.33.23l.1.2.26.58a.58.58,0,0,1,0,.28.24.24,0,0,0,.1.22l.1.07a.45.45,0,0,1,.18.42l-.07.47,0,.2a.33.33,0,0,0,.12.3.48.48,0,0,1,.23.38v.2a.42.42,0,0,1-.1.3.49.49,0,0,0-.1.3l0,.23a.6.6,0,0,0,.2.4.61.61,0,0,1,.24.42,3.92,3.92,0,0,1,0,.65v.23a.66.66,0,0,0,0,.24.34.34,0,0,0,.13.18l.2.15a1,1,0,0,1,.42.53,1.61,1.61,0,0,1,.13.68v.08a1.64,1.64,0,0,1-.08.54.71.71,0,0,0,0,.5,1.24,1.24,0,0,1,.15.47,1,1,0,0,1-.05.56l0,.07a.9.9,0,0,1-.23.32c-.1.1-.2.16-.26.23a.25.25,0,0,0-.07.25l0,.14a1.14,1.14,0,0,1,0,.58v.08a2.09,2.09,0,0,1-.16.4.72.72,0,0,1-.3.3l-.15.1a.26.26,0,0,0-.12.22.38.38,0,0,1-.1.26l-.15.2a1,1,0,0,1-.37.3,2.17,2.17,0,0,0-.35.3,1.13,1.13,0,0,0-.22.4.34.34,0,0,1-.33.28h-.54a.39.39,0,0,0-.33.22,1.3,1.3,0,0,1-.23.37.8.8,0,0,0-.2.36c0,.12-.12.2-.22.16a.25.25,0,0,0-.32.1,2.42,2.42,0,0,1-.37.48l-.07.06a.8.8,0,0,1-.45.18.27.27,0,0,0-.3.2,1.86,1.86,0,0,0-.06.34,1.59,1.59,0,0,1-.1.33l-.05.06c-.1.15-.18.3-.28.43l0,.06a.92.92,0,0,1-.5.35,2,2,0,0,1-.66.1h-.14a.34.34,0,0,0-.27.16l-.06.1-.06.12-.13.22a.74.74,0,0,1-.45.36,2.28,2.28,0,0,1-.64.06l-.16,0a1,1,0,0,1-.4-.1.26.26,0,0,0-.3.1.66.66,0,0,1-.35.26l-.3.1a1.34,1.34,0,0,1-.63,0l-.16-.05a.56.56,0,0,1-.28-.1.54.54,0,0,0-.3-.06l-.13,0a1.49,1.49,0,0,1-.56-.05l-.27-.06a.57.57,0,0,1-.3-.23.39.39,0,0,0-.3-.2H9.9a.75.75,0,0,1-.5-.25L9,22.5l-.14-.12-.22-.16-.13-.1a1.18,1.18,0,0,0-.52-.2l-.6-.1a.9.9,0,0,1-.16,0L7,21.74a.47.47,0,0,1-.27-.2.22.22,0,0,0-.27-.1,2.46,2.46,0,0,1-.52.13H5.8a1.46,1.46,0,0,1-.74-.13A1.33,1.33,0,0,1,4.51,21,.82.82,0,0,0,4,20.66l-.28-.06a1.63,1.63,0,0,1-.58-.24,1.08,1.08,0,0,1-.38-.43,1.2,1.2,0,0,1-.14-.5v-.08a.49.49,0,0,0-.35-.43,1.45,1.45,0,0,1-.55-.3.71.71,0,0,1-.22-.52l0-.44a.56.56,0,0,0-.17-.43.62.62,0,0,1-.2-.43l0-.36A5.29,5.29,0,0,0,1,15.66a.5.5,0,0,1,.22-.57L1.27,15a.25.25,0,0,0,.08-.32l-.08-.1a.75.75,0,0,0-.3-.2.15.15,0,0,1-.1-.15l.1-.12a.2.2,0,0,0,0-.24.45.45,0,0,1-.13-.28l0-.7a1.52,1.52,0,0,1,.06-.42.26.26,0,0,0-.12-.32Zm9.9-1.32a.18.18,0,0,0,0-.25,1,1,0,0,1-.23-.27l-.1-.16a1.46,1.46,0,0,0-.26-.34l0,0a.86.86,0,0,1-.23-.3.32.32,0,0,1,0-.3l.06-.1a.75.75,0,0,0,.1-.36v0a.6.6,0,0,0-.1-.3,1.16,1.16,0,0,1-.1-.28V8.1a.41.41,0,0,1,.08-.35,1.18,1.18,0,0,0,.17-.4v0A.39.39,0,0,0,10,7a.36.36,0,0,1,0-.32l.07-.2A1.42,1.42,0,0,1,10.29,6l.14-.15.1-.12.06-.06a.19.19,0,0,0,0-.24.47.47,0,0,1-.06-.3l0-.14a1.15,1.15,0,0,1,.23-.56l0,0A1.1,1.1,0,0,1,11.4,4l.27-.1a.32.32,0,0,0,.2-.3A.74.74,0,0,1,12,3.16l.05-.05a5.39,5.39,0,0,0,.3-.52l.07-.13a.19.19,0,0,0,0-.1A.3.3,0,0,0,12.2,2l-.44,0c-.25,0-.5,0-.74,0l-.85.1a.24.24,0,0,0-.24.24.33.33,0,0,1-.22.3l-.36.1-.1,0-.3.1a.82.82,0,0,0-.5.45l-.08.13A1.23,1.23,0,0,1,7.89,4a.73.73,0,0,0-.32.58v.1a1,1,0,0,1-.2.54l0,.08a.33.33,0,0,0-.05.34A.83.83,0,0,1,7.34,6v.53a.34.34,0,0,1-.2.3.43.43,0,0,0-.27.3l0,.2a.5.5,0,0,0,.2.52.81.81,0,0,1,.3.52v.18a.69.69,0,0,0,.32.5,1.09,1.09,0,0,1,.4.5l.05.16a.55.55,0,0,0,.46.37h.06a.52.52,0,0,1,.44.26.65.65,0,0,0,.44.3l.28.08a1.08,1.08,0,0,1,.46.27l0,0a.25.25,0,0,0,.35,0l.07-.08ZM11.8,10A.16.16,0,0,0,12,9.9l0-.05a2.11,2.11,0,0,1,.26-.4l.2-.3s0,0,.05,0l.24-.32a.51.51,0,0,1,.36-.17.32.32,0,0,0,.3-.2A.78.78,0,0,1,13.7,8L13.75,8a1,1,0,0,1,.3-.2,2.46,2.46,0,0,1,.37,0h.3A.31.31,0,0,0,15,7.59a.59.59,0,0,1,.25-.22l.1,0a1.82,1.82,0,0,1,.52-.14l.2,0a.7.7,0,0,1,.37.07.27.27,0,0,0,.33,0l.07,0a1.15,1.15,0,0,1,.5-.2h0a2.26,2.26,0,0,1,.58,0H18a.78.78,0,0,1,.5.25l0,0a.62.62,0,0,0,.4.18h.17a.15.15,0,0,0,.13-.07.2.2,0,0,1,.13-.06h.1a1.35,1.35,0,0,1,.4.08l.17.07a2.8,2.8,0,0,0,.5.12h.12a.12.12,0,0,0,.13-.12.53.53,0,0,0-.07-.28L20.68,7a3.73,3.73,0,0,1-.2-.4l0,0a.32.32,0,0,1,0-.3v0a.17.17,0,0,0-.1-.2h-.08a.8.8,0,0,1-.4-.27l-.1-.1a.89.89,0,0,1-.2-.4.33.33,0,0,0-.3-.23h-.42a.55.55,0,0,1-.37-.22l0,0a1.35,1.35,0,0,1-.17-.34A.23.23,0,0,0,18,4.26l-.12,0a1.39,1.39,0,0,1-.6.08l-.16,0a.76.76,0,0,1-.46-.17l-.1-.07A1.23,1.23,0,0,0,16.33,4a.19.19,0,0,0-.24.05L16,4.09a.7.7,0,0,1-.38.2l-.54,0a.4.4,0,0,0-.27.12.59.59,0,0,1-.27.14h0a.59.59,0,0,0-.3.14v0a.51.51,0,0,1-.36.15l0,0a1.46,1.46,0,0,0-.36,0h-.12a.44.44,0,0,0-.34.35l0,.23a1,1,0,0,1-.2.43.48.48,0,0,1-.37.2h-.17a.23.23,0,0,0-.18.25,1.45,1.45,0,0,1,0,.47L12,7a.46.46,0,0,1-.27.32l-.06,0h0a.15.15,0,0,0-.05.2.48.48,0,0,1,.07.3l0,.32a.75.75,0,0,1-.1.33.32.32,0,0,0,0,.3l.1.22a.44.44,0,0,1,0,.32.78.78,0,0,0,0,.3.28.28,0,0,0,.14.24l0,0Zm7.9,7.23a.29.29,0,0,0,.37.06l.2-.13a.57.57,0,0,0,.22-.3v0l.1-.3.06-.1,0-.1,0-.07a.31.31,0,0,1,.2-.17l0,0a.18.18,0,0,0,.13-.18.43.43,0,0,1,.1-.25l.08-.07.2-.26v0A.66.66,0,0,0,21.6,15a.52.52,0,0,0,0-.3l0,0a.92.92,0,0,1-.07-.26l0-.28,0-.3a.6.6,0,0,1,.1-.3,1,1,0,0,0,.16-.28v0l0,0c0-.1,0-.2-.12-.2a.41.41,0,0,1-.23-.25l0-.06a2,2,0,0,1-.08-.54l0-.5v0a.3.3,0,0,0-.3-.3h0a.66.66,0,0,1-.5-.2l-.08-.1-.2-.23-.26-.3a2.37,2.37,0,0,0-.33-.38.76.76,0,0,0-.4-.22l-.2,0a1.07,1.07,0,0,1-.34-.14.22.22,0,0,0-.28,0l-.13.14-.06,0a.14.14,0,0,1-.17-.1.5.5,0,0,1,0-.38V9.37a.1.1,0,0,0-.12-.1h-.16a1.22,1.22,0,0,1-.53-.1l-.1,0a.76.76,0,0,0-.33-.08.56.56,0,0,0-.3.08l0,0a.82.82,0,0,1-.4.13h-.33a.66.66,0,0,0-.4.13,1.26,1.26,0,0,1-.42.16l-.27,0a.91.91,0,0,0-.36.17.89.89,0,0,1-.37.2l0,0a.74.74,0,0,0-.4.3l-.12.12a.27.27,0,0,0,0,.32.26.26,0,0,0,.3.1l.15-.06a.29.29,0,0,1,.24,0,.33.33,0,0,0,.24.07l.25,0a1.5,1.5,0,0,1,.42,0,1.16,1.16,0,0,1,.4.2.74.74,0,0,0,.4.16,2.16,2.16,0,0,1,.44.1l.1,0a.42.42,0,0,1,.24.2.63.63,0,0,1,.1.3v0a.2.2,0,0,0,.2.2h.06a1.77,1.77,0,0,1,.5.07l.07,0a.58.58,0,0,1,.27.2.88.88,0,0,1,.16.3l0,.14a2.32,2.32,0,0,1,0,.46v0a.26.26,0,0,0,.18.24,1.21,1.21,0,0,1,.33.12l0,0a1.48,1.48,0,0,1,.36.3l.05.07a.81.81,0,0,1,.2.53v.07a1.32,1.32,0,0,1-.08.44.22.22,0,0,0,.13.3l.07,0a.93.93,0,0,1,.38.3.88.88,0,0,1,.14.5v.3a.63.63,0,0,1-.1.25.21.21,0,0,0,0,.24l.06.1Zm-6.4-5.12h0s-.06,0,0,.1l0,.2a4,4,0,0,1,.08.48.62.62,0,0,0,.22.4h0a.67.67,0,0,1,.25.48v.5a.35.35,0,0,0,.06.28l.05.05a.68.68,0,0,1,.15.4l0,.55a.25.25,0,0,1-.2.26l-.1,0c-.07,0-.1.08-.1.15a.76.76,0,0,0,.06.25v0a.77.77,0,0,1,0,.3l0,.27a1.88,1.88,0,0,1-.2.56l-.07.12a.43.43,0,0,1-.2.2.34.34,0,0,0-.2.22l-.08.36a2.23,2.23,0,0,1-.26.6h0a1.44,1.44,0,0,1-.45.4l-.12.08-.3.15a.3.3,0,0,0-.18.24l-.05.33a.82.82,0,0,1-.24.5l-.13.15-.15.15L11,21a.53.53,0,0,1-.5.17l-.36-.07-.33,0H9.72a.13.13,0,0,0,0,.16.36.36,0,0,0,.3.2l.22,0a.79.79,0,0,1,.32.1.94.94,0,0,0,.32.15h0a.92.92,0,0,0,.4.05l.15,0a.91.91,0,0,1,.47.06l.12,0a.18.18,0,0,0,.18-.05.53.53,0,0,1,.2-.13l.08,0a1.34,1.34,0,0,1,.4-.06H13a.62.62,0,0,1,.33.08l0,0a.18.18,0,0,0,.2-.06.63.63,0,0,1,.17-.2l.25-.17.16-.1.08,0a.65.65,0,0,1,.36-.1l.36,0a.37.37,0,0,0,.3-.26,1.2,1.2,0,0,1,.2-.43,3.45,3.45,0,0,1,.3-.34.72.72,0,0,1,.4-.16h.08a.33.33,0,0,0,.27-.34v-.67a1.1,1.1,0,0,1,.12-.33l.2-.3.08-.1a1.93,1.93,0,0,0,.17-.2l.1-.13a.27.27,0,0,0,0-.32.66.66,0,0,1-.17-.38v0a1.22,1.22,0,0,1,0-.5v0a2,2,0,0,1,.2-.38.22.22,0,0,0,0-.32L17,15.57a.74.74,0,0,1-.24-.48l0-.2a.71.71,0,0,0,0-.2l0-.15a.57.57,0,0,0-.26-.4l-.07,0a.89.89,0,0,1-.28-.27.92.92,0,0,1-.15-.38l0-.17a.15.15,0,0,0-.1-.13l-.16-.05L15.3,13a.59.59,0,0,1-.27-.17h0a.14.14,0,0,0-.22,0l-.1.1s0,0-.07,0a.08.08,0,0,1-.08-.1.45.45,0,0,0-.17-.42l-.13-.1-.3-.2a.19.19,0,0,0-.24.1l0,.06s0,0,0,0-.1,0-.1-.05l0,0a.28.28,0,0,0-.16-.12Zm-1.2,1,0-.05a.1.1,0,0,0-.15,0,1.4,1.4,0,0,0-.16.38v0a.25.25,0,0,1-.27.2h-.12a.26.26,0,0,0-.25.26.82.82,0,0,1-.17.5l-.06.06a.84.84,0,0,1-.4.27l-.08,0a.27.27,0,0,0-.2.22.42.42,0,0,1-.14.28l-.1.08a.77.77,0,0,1-.48.22l-.5,0a.5.5,0,0,0-.4.25.6.6,0,0,1-.4.27l-.22,0a1.41,1.41,0,0,1-.5,0l-.1,0L7.08,16a.21.21,0,0,0-.24.07l-.1.13a.58.58,0,0,1-.5.2l-.65-.08a.56.56,0,0,1-.27-.1,1.21,1.21,0,0,1-.24-.2l-.25-.3a.18.18,0,0,0-.13,0l-.14.06L4,15.93a.44.44,0,0,1-.33-.06.52.52,0,0,0-.34-.1H3.2a.22.22,0,0,0-.16.28l0,.2a.45.45,0,0,1,0,.32.28.28,0,0,0,0,.3l.06.08a2.27,2.27,0,0,0,.3.32,1.81,1.81,0,0,1,.28.33l.15.27a.4.4,0,0,0,.36.22.66.66,0,0,1,.42.15l.3.28a.23.23,0,0,0,.28,0l0,0a.09.09,0,0,1,.1.1v.05a.34.34,0,0,0,.23.3l.45.1a1.75,1.75,0,0,1,.47.2h.08a.14.14,0,0,0,.14-.16v-.35a.26.26,0,0,1,.12-.24l0,0s.1.06.08.1v.17a.47.47,0,0,0,.13.34.32.32,0,0,0,.34.08.78.78,0,0,1,.37-.05l.37,0a.93.93,0,0,0,.5-.07,1.51,1.51,0,0,0,.47-.25l.06,0,.3-.27a.5.5,0,0,1,.35-.15h.4a.47.47,0,0,0,.4-.4l0-.2a.53.53,0,0,1,.15-.35.87.87,0,0,1,.3-.2l.12-.05a.65.65,0,0,0,.36-.4l.06-.24A1,1,0,0,1,12,16l0,0a.36.36,0,0,0,.06-.44l0-.07a.42.42,0,0,1,0-.38,1.66,1.66,0,0,1,.18-.38l.1-.14a.26.26,0,0,0,0-.27.48.48,0,0,1-.1-.28l0-.14v-.34a.74.74,0,0,0,0-.33l0-.12Zm-1.43-.76v0a.14.14,0,0,0-.14-.16h-.26a.66.66,0,0,1-.28,0H9.54a2.53,2.53,0,0,1-.67-.1L8.63,12l-.2-.06L8,11.75a.85.85,0,0,1-.53-.45l0-.1A.34.34,0,0,0,7,11a1.08,1.08,0,0,1-.5-.08l-.12-.05A.62.62,0,0,1,6,10.3L6,10a.45.45,0,0,0-.24-.32,2.3,2.3,0,0,1-.4-.23l0,0A1.1,1.1,0,0,1,4.93,9l0-.06a.94.94,0,0,1,0-.5l0-.06A1.33,1.33,0,0,0,5,8a.47.47,0,0,0-.14-.33L4.68,7.5A.73.73,0,0,1,4.41,7a2.28,2.28,0,0,1,0-.64V6.27a.2.2,0,0,0-.2-.2h0a.34.34,0,0,0-.3.2,1.2,1.2,0,0,1-.22.36l0,0-.2.2-.1.1a.7.7,0,0,0-.18.4A1.69,1.69,0,0,1,3,7.82l0,0a.69.69,0,0,1-.23.3.43.43,0,0,0-.17.32L2.6,9a1.8,1.8,0,0,1-.1.6l0,.08A.26.26,0,0,0,2.6,10l.42.18,0,0s0,0,0,.05,0,.1,0,.1l-.1,0a.21.21,0,0,0-.12.15l0,.1v0l-.1.56a1.1,1.1,0,0,0,0,.26.2.2,0,0,0,.12.18l.22.1a2.23,2.23,0,0,1,.3.2l.1.08a.38.38,0,0,0,.12.1l0,0a.43.43,0,0,1,.14.23l.1.45a.28.28,0,0,0,.2.25l.16.05a.08.08,0,0,1,0,0l.2.06a1,1,0,0,1,.42.26,2,2,0,0,1,.34.37l0,0a.31.31,0,0,0,.32.12A1.58,1.58,0,0,1,6,14h.15a.66.66,0,0,1,.34.1,2.83,2.83,0,0,0,.35.15h0a.36.36,0,0,0,.35,0,.58.58,0,0,1,.36-.12l.47,0a.28.28,0,0,0,.25-.1h0l.17-.16,0-.05a.44.44,0,0,1,.32-.15h.45a.35.35,0,0,0,.28-.2.37.37,0,0,1,.27-.2l.2,0a.21.21,0,0,0,.18-.16.49.49,0,0,1,.15-.24l.16-.16a.56.56,0,0,0,.17-.32Z" transform="translate(-0.06 -0.12)"/></svg>